<?xml version="1.0" encoding="UTF-8"?>
<svg xmlns="http://www.w3.org/2000/svg" width="64" height="64" viewBox="0 0 64 64" fill="none">

  <path fill="currentColor" fill-opacity="0.18" stroke="currentColor" stroke-width="2.5" d="M10 22 C24 12 40 14 50 28 C56 38 52 50 40 54 C30 57 20 52 16 46"/>
  <g stroke="currentColor" stroke-width="2" stroke-linecap="round" fill="none">
    <path d="M14 20 C20 26 22 34 18 40"/>
    <path d="M22 16 C28 24 30 34 26 44"/>
    <path d="M30 16 C36 26 36 38 32 48"/>
    <path d="M38 20 C44 30 42 42 36 50"/>
    <path d="M46 30 C48 40 44 48 38 52"/>
  </g>
  <ellipse cx="16" cy="48" rx="5" ry="3.5" fill="currentColor"/>
  <ellipse cx="54" cy="16" rx="7" ry="5" fill="currentColor" fill-opacity="0.3" stroke="currentColor" stroke-width="2"/>
  <ellipse cx="54" cy="16" rx="2.5" ry="1.8" fill="currentColor"/>
</svg>
