<svg xmlns="http://www.w3.org/2000/svg" width="64" height="64" viewBox="0 0 64 64" fill="none" stroke="currentColor" stroke-width="2" stroke-linecap="round" stroke-linejoin="round">
  <title>Front derailleur icon</title>
  <path d="M10,20 A7,7 0 0 1 22,17" />
  <circle cx="16.00" cy="12.20" r="1.10" fill="currentColor" stroke="none" />
  <line x1="22.00" y1="17.00" x2="23.00" y2="20.00" />
  <line x1="23.00" y1="20.00" x2="31.00" y2="18.00" />
  <line x1="25.00" y1="28.00" x2="33.00" y2="26.00" />
  <line x1="23.00" y1="20.00" x2="25.00" y2="28.00" />
  <line x1="31.00" y1="18.00" x2="33.00" y2="26.00" />
  <circle cx="23.00" cy="20.00" r="1.00" fill="currentColor" stroke="none" />
  <circle cx="31.00" cy="18.00" r="1.00" fill="currentColor" stroke="none" />
  <circle cx="25.00" cy="28.00" r="1.00" fill="currentColor" stroke="none" />
  <circle cx="33.00" cy="26.00" r="1.00" fill="currentColor" stroke="none" />
  <line x1="32.00" y1="22.00" x2="38.00" y2="23.00" />
  <ellipse cx="43.00" cy="34.00" rx="8.00" ry="16.00" />
  <ellipse cx="43.00" cy="34.00" rx="4.50" ry="10.00" />
  <line x1="35.00" y1="29.00" x2="51.00" y2="29.00" />
  <line x1="35.00" y1="39.00" x2="51.00" y2="39.00" />
</svg>
