<svg xmlns="http://www.w3.org/2000/svg" width="64" height="64" viewBox="0 0 64 64" fill="none" stroke="currentColor" stroke-width="2" stroke-linecap="round" stroke-linejoin="round">
  <title>Pedals icon</title>
  <rect x="14.00" y="24.00" width="34.00" height="14.00" rx="4.00" />
  <line x1="18.00" y1="24.00" x2="18.00" y2="20.00" stroke-width="1.6" />
  <line x1="18.00" y1="38.00" x2="18.00" y2="42.00" stroke-width="1.6" />
  <line x1="24.00" y1="24.00" x2="24.00" y2="20.00" stroke-width="1.6" />
  <line x1="24.00" y1="38.00" x2="24.00" y2="42.00" stroke-width="1.6" />
  <line x1="30.00" y1="24.00" x2="30.00" y2="20.00" stroke-width="1.6" />
  <line x1="30.00" y1="38.00" x2="30.00" y2="42.00" stroke-width="1.6" />
  <line x1="36.00" y1="24.00" x2="36.00" y2="20.00" stroke-width="1.6" />
  <line x1="36.00" y1="38.00" x2="36.00" y2="42.00" stroke-width="1.6" />
  <line x1="42.00" y1="24.00" x2="42.00" y2="20.00" stroke-width="1.6" />
  <line x1="42.00" y1="38.00" x2="42.00" y2="42.00" stroke-width="1.6" />
  <line x1="14.00" y1="31.00" x2="5.00" y2="31.00" stroke-width="2.4" />
  <circle cx="5.00" cy="31.00" r="2.40" />
  <circle cx="48.00" cy="31.00" r="2.00" />
  <line x1="45.50" y1="31.00" x2="50.50" y2="31.00" stroke-width="1.4" />
  <line x1="48.00" y1="28.50" x2="48.00" y2="33.50" stroke-width="1.4" />
</svg>
