<svg xmlns="http://www.w3.org/2000/svg" width="64" height="64" viewBox="0 0 64 64" fill="none" stroke="currentColor" stroke-width="2" stroke-linecap="round" stroke-linejoin="round">
  <title>Rear derailleur icon</title>
  <circle cx="40.00" cy="14.00" r="1.60" fill="currentColor" stroke="none" />
  <line x1="40.00" y1="15.00" x2="34.00" y2="21.00" />
  <line x1="40.00" y1="15.00" x2="43.00" y2="19.00" />
  <path d="M36,16.5 A3,3 0 0 1 41,16" />
  <circle cx="34.00" cy="21.00" r="1.20" fill="currentColor" stroke="none" />
  <circle cx="43.00" cy="19.00" r="1.20" fill="currentColor" stroke="none" />
  <rect x="25.46" y="25.00" width="12.08" height="3.00" rx="1.50" transform="rotate(114.44 31.50 26.50)" />
  <rect x="20.49" y="39.50" width="18.03" height="3.00" rx="1.50" transform="rotate(86.82 29.50 41.00)" />
  <rect x="34.17" y="22.70" width="11.66" height="2.60" rx="1.30" transform="rotate(120.96 40.00 24.00)" />
  <rect x="26.87" y="36.20" width="17.26" height="2.60" rx="1.30" transform="rotate(100.01 35.50 37.50)" />
  <circle cx="29.00" cy="32.00" r="7.00" />
  <circle cx="29.00" cy="32.00" r="1.10" fill="currentColor" stroke="none" />
  <polygon points="35.98,31.51 35.98,32.49 37.80,32.00" fill="currentColor" stroke="none" />
  <polygon points="35.29,35.07 34.80,35.91 36.62,36.40" fill="currentColor" stroke="none" />
  <polygon points="32.91,37.80 32.07,38.29 33.40,39.62" fill="currentColor" stroke="none" />
  <polygon points="29.49,38.98 28.51,38.98 29.00,40.80" fill="currentColor" stroke="none" />
  <polygon points="25.93,38.29 25.09,37.80 24.60,39.62" fill="currentColor" stroke="none" />
  <polygon points="23.20,35.91 22.71,35.07 21.38,36.40" fill="currentColor" stroke="none" />
  <polygon points="22.02,32.49 22.02,31.51 20.20,32.00" fill="currentColor" stroke="none" />
  <polygon points="22.71,28.93 23.20,28.09 21.38,27.60" fill="currentColor" stroke="none" />
  <polygon points="25.09,26.20 25.93,25.71 24.60,24.38" fill="currentColor" stroke="none" />
  <polygon points="28.51,25.02 29.49,25.02 29.00,23.20" fill="currentColor" stroke="none" />
  <polygon points="32.07,25.71 32.91,26.20 33.40,24.38" fill="currentColor" stroke="none" />
  <polygon points="34.80,28.09 35.29,28.93 36.62,27.60" fill="currentColor" stroke="none" />
  <circle cx="31.00" cy="49.00" r="7.00" />
  <circle cx="31.00" cy="49.00" r="1.10" fill="currentColor" stroke="none" />
  <polygon points="37.98,48.51 37.98,49.49 39.80,49.00" fill="currentColor" stroke="none" />
  <polygon points="37.29,52.07 36.80,52.91 38.62,53.40" fill="currentColor" stroke="none" />
  <polygon points="34.91,54.80 34.07,55.29 35.40,56.62" fill="currentColor" stroke="none" />
  <polygon points="31.49,55.98 30.51,55.98 31.00,57.80" fill="currentColor" stroke="none" />
  <polygon points="27.93,55.29 27.09,54.80 26.60,56.62" fill="currentColor" stroke="none" />
  <polygon points="25.20,52.91 24.71,52.07 23.38,53.40" fill="currentColor" stroke="none" />
  <polygon points="24.02,49.49 24.02,48.51 22.20,49.00" fill="currentColor" stroke="none" />
  <polygon points="24.71,45.93 25.20,45.09 23.38,44.60" fill="currentColor" stroke="none" />
  <polygon points="27.09,43.20 27.93,42.71 26.60,41.38" fill="currentColor" stroke="none" />
  <polygon points="30.51,42.02 31.49,42.02 31.00,40.20" fill="currentColor" stroke="none" />
  <polygon points="34.07,42.71 34.91,43.20 35.40,41.38" fill="currentColor" stroke="none" />
  <polygon points="36.80,45.09 37.29,45.93 38.62,44.60" fill="currentColor" stroke="none" />
</svg>
