<svg xmlns="http://www.w3.org/2000/svg" width="64" height="64" viewBox="0 0 64 64" fill="none" stroke="currentColor" stroke-width="2" stroke-linecap="round" stroke-linejoin="round">
  <title>Rear wheel icon</title>
  <circle cx="32.00" cy="32.00" r="24.00" />
  <circle cx="32.00" cy="32.00" r="19.00" />
  <line x1="36.00" y1="32.00" x2="50.97" y2="32.99" stroke-width="1.2" />
  <line x1="35.80" y1="33.24" x2="49.74" y2="38.81" stroke-width="1.2" />
  <line x1="35.24" y1="34.35" x2="46.77" y2="43.96" stroke-width="1.2" />
  <line x1="34.35" y1="35.24" x2="42.35" y2="47.93" stroke-width="1.2" />
  <line x1="33.24" y1="35.80" x2="36.92" y2="50.35" stroke-width="1.2" />
  <line x1="32.00" y1="36.00" x2="31.01" y2="50.97" stroke-width="1.2" />
  <line x1="30.76" y1="35.80" x2="25.19" y2="49.74" stroke-width="1.2" />
  <line x1="29.65" y1="35.24" x2="20.04" y2="46.77" stroke-width="1.2" />
  <line x1="28.76" y1="34.35" x2="16.07" y2="42.35" stroke-width="1.2" />
  <line x1="28.20" y1="33.24" x2="13.65" y2="36.92" stroke-width="1.2" />
  <line x1="28.00" y1="32.00" x2="13.03" y2="31.01" stroke-width="1.2" />
  <line x1="28.20" y1="30.76" x2="14.26" y2="25.19" stroke-width="1.2" />
  <line x1="28.76" y1="29.65" x2="17.23" y2="20.04" stroke-width="1.2" />
  <line x1="29.65" y1="28.76" x2="21.65" y2="16.07" stroke-width="1.2" />
  <line x1="30.76" y1="28.20" x2="27.08" y2="13.65" stroke-width="1.2" />
  <line x1="32.00" y1="28.00" x2="32.99" y2="13.03" stroke-width="1.2" />
  <line x1="33.24" y1="28.20" x2="38.81" y2="14.26" stroke-width="1.2" />
  <line x1="34.35" y1="28.76" x2="43.96" y2="17.23" stroke-width="1.2" />
  <line x1="35.24" y1="29.65" x2="47.93" y2="21.65" stroke-width="1.2" />
  <line x1="35.80" y1="30.76" x2="50.35" y2="27.08" stroke-width="1.2" />
  <line x1="56.00" y1="32.00" x2="58.00" y2="32.00" stroke-width="2" />
  <line x1="54.17" y1="41.18" x2="56.02" y2="41.95" stroke-width="2" />
  <line x1="48.97" y1="48.97" x2="50.38" y2="50.38" stroke-width="2" />
  <line x1="41.18" y1="54.17" x2="41.95" y2="56.02" stroke-width="2" />
  <line x1="32.00" y1="56.00" x2="32.00" y2="58.00" stroke-width="2" />
  <line x1="22.82" y1="54.17" x2="22.05" y2="56.02" stroke-width="2" />
  <line x1="15.03" y1="48.97" x2="13.62" y2="50.38" stroke-width="2" />
  <line x1="9.83" y1="41.18" x2="7.98" y2="41.95" stroke-width="2" />
  <line x1="8.00" y1="32.00" x2="6.00" y2="32.00" stroke-width="2" />
  <line x1="9.83" y1="22.82" x2="7.98" y2="22.05" stroke-width="2" />
  <line x1="15.03" y1="15.03" x2="13.62" y2="13.62" stroke-width="2" />
  <line x1="22.82" y1="9.83" x2="22.05" y2="7.98" stroke-width="2" />
  <line x1="32.00" y1="8.00" x2="32.00" y2="6.00" stroke-width="2" />
  <line x1="41.18" y1="9.83" x2="41.95" y2="7.98" stroke-width="2" />
  <line x1="48.97" y1="15.03" x2="50.38" y2="13.62" stroke-width="2" />
  <line x1="54.17" y1="22.82" x2="56.02" y2="22.05" stroke-width="2" />
  <circle cx="32.00" cy="32.00" r="4.00" />
  <circle cx="32.00" cy="32.00" r="1.40" fill="currentColor" stroke="none" />
  <ellipse cx="41.00" cy="32.00" rx="1.60" ry="3.20" />
  <ellipse cx="43.00" cy="32.00" rx="1.60" ry="4.60" />
  <ellipse cx="45.00" cy="32.00" rx="1.60" ry="6.00" />
  <ellipse cx="47.00" cy="32.00" rx="1.60" ry="7.40" />
</svg>
