<svg xmlns="http://www.w3.org/2000/svg" width="64" height="64" viewBox="0 0 64 64" fill="none" stroke="currentColor" stroke-width="2" stroke-linecap="round" stroke-linejoin="round">
  <title>Rims icon</title>
  <circle cx="32.00" cy="32.00" r="22.00" />
  <circle cx="32.00" cy="32.00" r="18.00" />
  <circle cx="52.00" cy="32.00" r="0.90" fill="currentColor" stroke="none" />
  <circle cx="51.32" cy="37.18" r="0.90" fill="currentColor" stroke="none" />
  <circle cx="49.32" cy="42.00" r="0.90" fill="currentColor" stroke="none" />
  <circle cx="46.14" cy="46.14" r="0.90" fill="currentColor" stroke="none" />
  <circle cx="42.00" cy="49.32" r="0.90" fill="currentColor" stroke="none" />
  <circle cx="37.18" cy="51.32" r="0.90" fill="currentColor" stroke="none" />
  <circle cx="32.00" cy="52.00" r="0.90" fill="currentColor" stroke="none" />
  <circle cx="26.82" cy="51.32" r="0.90" fill="currentColor" stroke="none" />
  <circle cx="22.00" cy="49.32" r="0.90" fill="currentColor" stroke="none" />
  <circle cx="17.86" cy="46.14" r="0.90" fill="currentColor" stroke="none" />
  <circle cx="14.68" cy="42.00" r="0.90" fill="currentColor" stroke="none" />
  <circle cx="12.68" cy="37.18" r="0.90" fill="currentColor" stroke="none" />
  <circle cx="12.00" cy="32.00" r="0.90" fill="currentColor" stroke="none" />
  <circle cx="12.68" cy="26.82" r="0.90" fill="currentColor" stroke="none" />
  <circle cx="14.68" cy="22.00" r="0.90" fill="currentColor" stroke="none" />
  <circle cx="17.86" cy="17.86" r="0.90" fill="currentColor" stroke="none" />
  <circle cx="22.00" cy="14.68" r="0.90" fill="currentColor" stroke="none" />
  <circle cx="26.82" cy="12.68" r="0.90" fill="currentColor" stroke="none" />
  <circle cx="32.00" cy="12.00" r="0.90" fill="currentColor" stroke="none" />
  <circle cx="37.18" cy="12.68" r="0.90" fill="currentColor" stroke="none" />
  <circle cx="42.00" cy="14.68" r="0.90" fill="currentColor" stroke="none" />
  <circle cx="46.14" cy="17.86" r="0.90" fill="currentColor" stroke="none" />
  <circle cx="49.32" cy="22.00" r="0.90" fill="currentColor" stroke="none" />
  <circle cx="51.32" cy="26.82" r="0.90" fill="currentColor" stroke="none" />
  <rect x="30.00" y="52.00" width="4.00" height="6.00" rx="1.00" />
</svg>
