<svg xmlns="http://www.w3.org/2000/svg" width="64" height="64" viewBox="0 0 64 64" fill="none" stroke="currentColor" stroke-width="2" stroke-linecap="round" stroke-linejoin="round">
  <title>Saddle icon</title>
  <path d="M32,10 C26,10 24,16 24,22 C24,32 15,36 15,45 C15,53 25,56 32,56 C39,56 49,53 49,45 C49,36 40,32 40,22 C40,16 38,10 32,10 Z" />
  <path d="M32,15 C28,15 27,19 27,23 C27,31 19,35 19,44 C19,50 26,52 32,52 C38,52 45,50 45,44 C45,35 37,31 37,23 C37,19 36,15 32,15 Z" stroke-width="1.3" />
  <line x1="32.00" y1="18.00" x2="32.00" y2="50.00" stroke-width="1.3" />
  <ellipse cx="32.00" cy="34.00" rx="4.00" ry="9.00" stroke-width="1.3" />
  <line x1="17.00" y1="44.00" x2="13.00" y2="46.00" stroke-width="2" />
  <line x1="47.00" y1="44.00" x2="51.00" y2="46.00" stroke-width="2" />
</svg>
