<?xml version="1.0" encoding="UTF-8"?>
<svg xmlns="http://www.w3.org/2000/svg" width="64" height="64" viewBox="0 0 64 64" fill="none">

  <circle fill="currentColor" cx="26" cy="34" r="20"/>
  <circle fill="#fff" cx="26" cy="34" r="13"/>
  <circle fill="currentColor" cx="26" cy="34" r="5"/>
  <!-- teeth -->
  <path fill="currentColor" d="M26 12 L28 16 H24 Z M40 22 L38 26 L42 24 Z M46 34 L42 36 V32 Z M40 46 L38 42 L42 44 Z M26 56 L24 52 H28 Z M12 46 L14 42 L10 44 Z M6 34 L10 32 V36 Z M12 22 L14 26 L10 24 Z"/>
  <path fill="currentColor" d="M30 34 L56 16 L58 22 L34 38 Z"/>
  <circle fill="currentColor" cx="56" cy="16" r="3"/>
  <circle fill="#fff" cx="56" cy="16" r="1.2"/>
</svg>
