<?xml version="1.0" encoding="UTF-8"?>
<svg xmlns="http://www.w3.org/2000/svg" width="64" height="64" viewBox="0 0 64 64" fill="none">

  <path fill="currentColor" d="M12 8 C20 8 26 14 26 22 C26 26 24 28 22 30 L40 48 L36 52 L18 34 C16 36 12 38 8 38 C0 38 -2 28 4 20 L10 26 C12 24 14 22 14 20 C14 16 12 12 8 12 Z"/>
  <path fill="currentColor" d="M38 12 L50 18 V30 L38 36 L26 30 V18 Z"/>
  <circle fill="#fff" cx="38" cy="24" r="4"/>
  <path fill="currentColor" d="M42 50 L54 38 L58 42 L46 54 Z"/>
</svg>
