<?xml version="1.0" encoding="UTF-8"?>
<svg xmlns="http://www.w3.org/2000/svg" width="64" height="64" viewBox="0 0 64 64" fill="none">

  <defs>
    <pattern id="hatch" patternUnits="userSpaceOnUse" width="4" height="4">
      <path d="M0 4 L4 0" stroke="currentColor" stroke-width="0.7" opacity="0.35"/>
    </pattern>
    <pattern id="hatch2" patternUnits="userSpaceOnUse" width="3" height="3">
      <path d="M0 3 L3 0" stroke="currentColor" stroke-width="0.6" opacity="0.25"/>
    </pattern>
  </defs>
  <rect x="22" y="20" width="20" height="24" rx="2" fill="url(#hatch)" stroke="currentColor" stroke-width="1.5"/>
  <ellipse cx="18" cy="32" rx="5" ry="11" fill="url(#hatch2)" stroke="currentColor" stroke-width="1.5"/>
  <ellipse cx="46" cy="32" rx="5" ry="11" fill="url(#hatch2)" stroke="currentColor" stroke-width="1.5"/>
  <path stroke="currentColor" stroke-width="2" stroke-linecap="round" d="M4 32 H14 M50 32 H60"/>
  <path stroke="currentColor" stroke-width="1.3" d="M4 28 V36 M60 28 V36"/>
  <g fill="currentColor">
    <circle cx="18" cy="26" r="1.3"/><circle cx="18" cy="32" r="1.3"/><circle cx="18" cy="38" r="1.3"/>
    <circle cx="46" cy="26" r="1.3"/><circle cx="46" cy="32" r="1.3"/><circle cx="46" cy="38" r="1.3"/>
  </g>
  <circle cx="32" cy="32" r="3.5" fill="none" stroke="currentColor" stroke-width="1.3"/>
</svg>
