<?xml version="1.0" encoding="UTF-8"?>
<svg xmlns="http://www.w3.org/2000/svg" width="64" height="64" viewBox="0 0 64 64" fill="none">

  <defs>
    <pattern id="hatch" patternUnits="userSpaceOnUse" width="4" height="4">
      <path d="M0 4 L4 0" stroke="currentColor" stroke-width="0.7" opacity="0.35"/>
    </pattern>
    <pattern id="hatch2" patternUnits="userSpaceOnUse" width="3" height="3">
      <path d="M0 3 L3 0" stroke="currentColor" stroke-width="0.6" opacity="0.25"/>
    </pattern>
  </defs>
  <circle cx="24" cy="32" r="22" fill="url(#hatch)" stroke="currentColor" stroke-width="1.7"/>
  <circle cx="24" cy="32" r="7" fill="url(#hatch2)" stroke="currentColor" stroke-width="1.3"/>
  <circle cx="24" cy="32" r="2.5" fill="currentColor"/>
  <g fill="none" stroke="currentColor" stroke-width="1.2">
    <path d="M16 22 C20 26 20 38 16 42"/>
    <path d="M32 22 C28 26 28 38 32 42"/>
    <path d="M18 18 C24 20 28 20 34 18"/>
    <circle cx="24" cy="22" r="1.5"/><circle cx="24" cy="42" r="1.5"/>
    <circle cx="14" cy="32" r="1.5"/><circle cx="34" cy="32" r="1.5"/>
  </g>
  <rect x="44" y="14" width="14" height="36" rx="2" fill="url(#hatch2)" stroke="currentColor" stroke-width="1.5"/>
  <rect x="46" y="22" width="4" height="20" fill="none" stroke="currentColor" stroke-width="1.2"/>
  <rect x="52" y="22" width="4" height="20" fill="none" stroke="currentColor" stroke-width="1.2"/>
  <circle cx="51" cy="32" r="2" fill="currentColor"/>
</svg>
