<?xml version="1.0" encoding="UTF-8"?>
<svg xmlns="http://www.w3.org/2000/svg" width="64" height="64" viewBox="0 0 64 64" fill="none">

  <defs>
    <pattern id="hatch" patternUnits="userSpaceOnUse" width="4" height="4">
      <path d="M0 4 L4 0" stroke="currentColor" stroke-width="0.7" opacity="0.35"/>
    </pattern>
    <pattern id="hatch2" patternUnits="userSpaceOnUse" width="3" height="3">
      <path d="M0 3 L3 0" stroke="currentColor" stroke-width="0.6" opacity="0.25"/>
    </pattern>
  </defs>
  <g stroke="currentColor" stroke-width="1.4" fill="url(#hatch)">
    <ellipse cx="32" cy="12" rx="22" ry="5"/>
  </g>
  <path fill="url(#hatch2)" stroke="currentColor" stroke-width="1.3" d="M10 12 V18 H54 V12"/>
  <ellipse cx="32" cy="18" rx="19" ry="4.5" fill="url(#hatch)" stroke="currentColor" stroke-width="1.3"/>
  <path fill="url(#hatch2)" stroke="currentColor" stroke-width="1.2" d="M13 18 V24 H51 V18"/>
  <ellipse cx="32" cy="24" rx="15" ry="4" fill="url(#hatch)" stroke="currentColor" stroke-width="1.2"/>
  <path fill="url(#hatch2)" stroke="currentColor" stroke-width="1.2" d="M17 24 V30 H47 V24"/>
  <ellipse cx="32" cy="30" rx="12" ry="3.5" fill="url(#hatch)" stroke="currentColor" stroke-width="1.2"/>
  <path fill="url(#hatch2)" stroke="currentColor" stroke-width="1.1" d="M20 30 V36 H44 V30"/>
  <ellipse cx="32" cy="36" rx="9" ry="3" fill="url(#hatch)" stroke="currentColor" stroke-width="1.1"/>
  <path fill="url(#hatch2)" stroke="currentColor" stroke-width="1.1" d="M23 36 V42 H41 V36"/>
  <ellipse cx="32" cy="42" rx="6" ry="2.5" fill="url(#hatch)" stroke="currentColor" stroke-width="1.1"/>
  <rect x="27" y="42" width="10" height="12" fill="url(#hatch2)" stroke="currentColor" stroke-width="1.1"/>
  <ellipse cx="32" cy="54" rx="5" ry="2" fill="none" stroke="currentColor" stroke-width="1.2"/>
  <g stroke="currentColor" stroke-width="1.2" stroke-linecap="round">
    <path d="M14 11 L12 7 M32 7 V11 M50 11 L52 7 M20 9 L19 12 M44 9 L45 12"/>
  </g>
</svg>
