<?xml version="1.0" encoding="UTF-8"?>
<svg xmlns="http://www.w3.org/2000/svg" width="64" height="64" viewBox="0 0 64 64" fill="none">

  <defs>
    <pattern id="hatch" patternUnits="userSpaceOnUse" width="4" height="4">
      <path d="M0 4 L4 0" stroke="currentColor" stroke-width="0.7" opacity="0.35"/>
    </pattern>
    <pattern id="hatch2" patternUnits="userSpaceOnUse" width="3" height="3">
      <path d="M0 3 L3 0" stroke="currentColor" stroke-width="0.6" opacity="0.25"/>
    </pattern>
  </defs>
  <circle cx="24" cy="34" r="20" fill="url(#hatch)" stroke="currentColor" stroke-width="1.7"/>
  <circle cx="24" cy="34" r="12" fill="none" stroke="currentColor" stroke-width="1.3"/>
  <circle cx="24" cy="34" r="4" fill="currentColor"/>
  <g stroke="currentColor" stroke-width="1.3" stroke-linecap="round">
    <path d="M24 12 L26 16 H22 Z" fill="currentColor" stroke="none"/>
    <path d="M40 20 L38 24" /><path d="M44 34 H40"/><path d="M40 48 L38 44"/>
    <path d="M24 56 L22 52 H26 Z" fill="currentColor" stroke="none"/>
    <path d="M8 48 L10 44"/><path d="M4 34 H8"/><path d="M8 20 L10 24"/>
  </g>
  <path fill="url(#hatch2)" stroke="currentColor" stroke-width="1.7" d="M28 34 L54 16 L58 22 L34 38 Z"/>
  <circle cx="56" cy="18" r="3" fill="none" stroke="currentColor" stroke-width="1.4"/>
</svg>
