<?xml version="1.0" encoding="UTF-8"?>
<svg xmlns="http://www.w3.org/2000/svg" width="64" height="64" viewBox="0 0 64 64" fill="none">

  <defs>
    <pattern id="hatch" patternUnits="userSpaceOnUse" width="4" height="4">
      <path d="M0 4 L4 0" stroke="currentColor" stroke-width="0.7" opacity="0.35"/>
    </pattern>
    <pattern id="hatch2" patternUnits="userSpaceOnUse" width="3" height="3">
      <path d="M0 3 L3 0" stroke="currentColor" stroke-width="0.6" opacity="0.25"/>
    </pattern>
  </defs>
  <path fill="url(#hatch)" stroke="currentColor" stroke-width="1.8" d="M12 48 L30 10 L52 48 Z"/>
  <path fill="none" stroke="currentColor" stroke-width="1.8" d="M30 10 V48 M12 48 H52"/>
  <path fill="none" stroke="currentColor" stroke-width="1.4" d="M30 10 L34 6 M32 6 V12"/>
  <path fill="none" stroke="currentColor" stroke-width="1.4" d="M30 26 L44 40"/>
  <circle cx="12" cy="48" r="3.5" fill="none" stroke="currentColor" stroke-width="1.6"/>
  <circle cx="52" cy="48" r="3.5" fill="none" stroke="currentColor" stroke-width="1.6"/>
  <circle cx="30" cy="48" r="2" fill="currentColor"/>
  <path stroke="currentColor" stroke-width="1.3" d="M8 42 L12 48 M56 42 L52 48"/>
  <g stroke="currentColor" stroke-width="0.8" opacity="0.5">
    <path d="M18 44 L30 22 L42 44"/>
  </g>
</svg>
