<?xml version="1.0" encoding="UTF-8"?>
<svg xmlns="http://www.w3.org/2000/svg" width="64" height="64" viewBox="0 0 64 64" fill="none">

  <defs>
    <pattern id="hatch" patternUnits="userSpaceOnUse" width="4" height="4">
      <path d="M0 4 L4 0" stroke="currentColor" stroke-width="0.7" opacity="0.35"/>
    </pattern>
    <pattern id="hatch2" patternUnits="userSpaceOnUse" width="3" height="3">
      <path d="M0 3 L3 0" stroke="currentColor" stroke-width="0.6" opacity="0.25"/>
    </pattern>
  </defs>
  <circle cx="20" cy="40" r="15" fill="url(#hatch)" stroke="currentColor" stroke-width="1.6"/>
  <circle cx="20" cy="40" r="9" fill="none" stroke="currentColor" stroke-width="1.3"/>
  <circle cx="20" cy="40" r="3" fill="currentColor"/>
  <g stroke="currentColor" stroke-width="1" stroke-linecap="round">
    <path d="M20 25 V28 M31 32 L29 34 M35 40 H32 M31 48 L29 46 M20 55 V52 M9 48 L11 46 M5 40 H8 M9 32 L11 34"/>
  </g>
  <path fill="url(#hatch2)" stroke="currentColor" stroke-width="1.4" d="M34 8 H50 V18 H34 Z"/>
  <path fill="none" stroke="currentColor" stroke-width="1.5" d="M36 18 V50 H50 V18"/>
  <path stroke="currentColor" stroke-width="1.2" d="M36 34 H50 M36 42 H50"/>
</svg>
