<?xml version="1.0" encoding="UTF-8"?>
<svg xmlns="http://www.w3.org/2000/svg" width="64" height="64" viewBox="0 0 64 64" fill="none">

  <defs>
    <pattern id="hatch" patternUnits="userSpaceOnUse" width="4" height="4">
      <path d="M0 4 L4 0" stroke="currentColor" stroke-width="0.7" opacity="0.35"/>
    </pattern>
    <pattern id="hatch2" patternUnits="userSpaceOnUse" width="3" height="3">
      <path d="M0 3 L3 0" stroke="currentColor" stroke-width="0.6" opacity="0.25"/>
    </pattern>
  </defs>
  <circle cx="32" cy="32" r="27" fill="none" stroke="currentColor" stroke-width="2"/>
  <circle cx="32" cy="32" r="23" fill="url(#hatch)" stroke="currentColor" stroke-width="1.2" fill-opacity="0.35"/>
  <circle cx="32" cy="32" r="6" fill="url(#hatch2)" stroke="currentColor" stroke-width="1.4"/>
  <g stroke="currentColor" stroke-width="1.2">
    <path d="M32 9 V26 M32 38 V55 M9 32 H26 M38 32 H55"/>
    <path d="M15 15 L26 26 M38 38 L49 49 M49 15 L38 26 M26 38 L15 49"/>
    <path d="M20 10 L28 24 M44 40 L52 54 M52 10 L44 24 M28 40 L20 54" opacity="0.55"/>
  </g>
  <circle cx="32" cy="32" r="2.2" fill="currentColor"/>
  <path stroke="currentColor" stroke-width="1.3" d="M18 32 H46 M16 28 V36 M48 28 V36"/>
</svg>
