<?xml version="1.0" encoding="UTF-8"?>
<svg xmlns="http://www.w3.org/2000/svg" width="64" height="64" viewBox="0 0 64 64" fill="none">

  <defs>
    <pattern id="hatch" patternUnits="userSpaceOnUse" width="4" height="4">
      <path d="M0 4 L4 0" stroke="currentColor" stroke-width="0.7" opacity="0.35"/>
    </pattern>
    <pattern id="hatch2" patternUnits="userSpaceOnUse" width="3" height="3">
      <path d="M0 3 L3 0" stroke="currentColor" stroke-width="0.6" opacity="0.25"/>
    </pattern>
  </defs>
  <line x1="32" y1="4" x2="32" y2="60" stroke="currentColor" stroke-width="1.8"/>
  <ellipse cx="32" cy="14" rx="15" ry="4.5" fill="url(#hatch)" stroke="currentColor" stroke-width="1.5"/>
  <ellipse cx="32" cy="20" rx="11" ry="3" fill="none" stroke="currentColor" stroke-width="1.2"/>
  <rect x="25" y="26" width="14" height="12" fill="url(#hatch2)" stroke="currentColor" stroke-width="1.3"/>
  <ellipse cx="32" cy="44" rx="11" ry="3" fill="none" stroke="currentColor" stroke-width="1.2"/>
  <ellipse cx="32" cy="50" rx="15" ry="4.5" fill="url(#hatch)" stroke="currentColor" stroke-width="1.5"/>
  <g fill="currentColor">
    <circle cx="24" cy="14" r="1.2"/><circle cx="32" cy="14" r="1.2"/><circle cx="40" cy="14" r="1.2"/>
    <circle cx="24" cy="50" r="1.2"/><circle cx="32" cy="50" r="1.2"/><circle cx="40" cy="50" r="1.2"/>
  </g>
  <path stroke="currentColor" stroke-width="1" d="M26 8 H38 M28 6 H36"/>
</svg>
