<?xml version="1.0" encoding="UTF-8"?>
<svg xmlns="http://www.w3.org/2000/svg" width="64" height="64" viewBox="0 0 64 64" fill="none">

  <defs>
    <pattern id="hatch" patternUnits="userSpaceOnUse" width="4" height="4">
      <path d="M0 4 L4 0" stroke="currentColor" stroke-width="0.7" opacity="0.35"/>
    </pattern>
    <pattern id="hatch2" patternUnits="userSpaceOnUse" width="3" height="3">
      <path d="M0 3 L3 0" stroke="currentColor" stroke-width="0.6" opacity="0.25"/>
    </pattern>
  </defs>
  <rect x="4" y="28" width="10" height="8" rx="1" fill="url(#hatch2)" stroke="currentColor" stroke-width="1.3"/>
  <rect x="50" y="28" width="10" height="8" rx="1" fill="url(#hatch2)" stroke="currentColor" stroke-width="1.3"/>
  <rect x="16" y="22" width="32" height="20" rx="3" fill="url(#hatch)" stroke="currentColor" stroke-width="1.5"/>
  <rect x="18" y="12" width="6" height="40" rx="2" fill="url(#hatch2)" stroke="currentColor" stroke-width="1.4"/>
  <rect x="40" y="12" width="6" height="40" rx="2" fill="url(#hatch2)" stroke="currentColor" stroke-width="1.4"/>
  <g fill="currentColor">
    <circle cx="21" cy="16" r="1.4"/><circle cx="21" cy="24" r="1.4"/><circle cx="21" cy="32" r="1.4"/><circle cx="21" cy="40" r="1.4"/><circle cx="21" cy="48" r="1.4"/>
    <circle cx="43" cy="16" r="1.4"/><circle cx="43" cy="24" r="1.4"/><circle cx="43" cy="32" r="1.4"/><circle cx="43" cy="40" r="1.4"/><circle cx="43" cy="48" r="1.4"/>
  </g>
  <circle cx="32" cy="32" r="3" fill="none" stroke="currentColor" stroke-width="1.3"/>
</svg>
