<?xml version="1.0" encoding="UTF-8"?>
<svg xmlns="http://www.w3.org/2000/svg" width="64" height="64" viewBox="0 0 64 64" fill="none">

  <defs>
    <pattern id="hatch" patternUnits="userSpaceOnUse" width="4" height="4">
      <path d="M0 4 L4 0" stroke="currentColor" stroke-width="0.7" opacity="0.35"/>
    </pattern>
    <pattern id="hatch2" patternUnits="userSpaceOnUse" width="3" height="3">
      <path d="M0 3 L3 0" stroke="currentColor" stroke-width="0.6" opacity="0.25"/>
    </pattern>
  </defs>
  <rect x="2" y="28" width="12" height="8" rx="1" fill="url(#hatch2)" stroke="currentColor" stroke-width="1.3"/>
  <rect x="12" y="16" width="44" height="32" rx="3" fill="url(#hatch)" stroke="currentColor" stroke-width="1.6"/>
  <g stroke="currentColor" stroke-width="1.4">
    <path d="M20 22 V42 M30 22 V42 M40 22 V42 M50 22 V42"/>
  </g>
  <g fill="currentColor">
    <circle cx="20" cy="20" r="1.6"/><circle cx="30" cy="20" r="1.6"/><circle cx="40" cy="20" r="1.6"/><circle cx="50" cy="20" r="1.6"/>
    <circle cx="20" cy="44" r="1.6"/><circle cx="30" cy="44" r="1.6"/><circle cx="40" cy="44" r="1.6"/><circle cx="50" cy="44" r="1.6"/>
  </g>
  <circle cx="32" cy="32" r="3" fill="none" stroke="currentColor" stroke-width="1.2"/>
</svg>
