<?xml version="1.0" encoding="UTF-8"?>
<svg xmlns="http://www.w3.org/2000/svg" width="64" height="64" viewBox="0 0 64 64" fill="none">

  <defs>
    <pattern id="hatch" patternUnits="userSpaceOnUse" width="4" height="4">
      <path d="M0 4 L4 0" stroke="currentColor" stroke-width="0.7" opacity="0.35"/>
    </pattern>
    <pattern id="hatch2" patternUnits="userSpaceOnUse" width="3" height="3">
      <path d="M0 3 L3 0" stroke="currentColor" stroke-width="0.6" opacity="0.25"/>
    </pattern>
  </defs>
  <circle cx="32" cy="32" r="27" fill="none" stroke="currentColor" stroke-width="2"/>
  <circle cx="32" cy="32" r="23" fill="url(#hatch)" stroke="currentColor" stroke-width="1.2" fill-opacity="0.35"/>
  <circle cx="32" cy="32" r="11" fill="url(#hatch2)" stroke="currentColor" stroke-width="1.3"/>
  <circle cx="32" cy="32" r="7" fill="none" stroke="currentColor" stroke-width="1.2"/>
  <circle cx="32" cy="32" r="4" fill="currentColor"/>
  <g stroke="currentColor" stroke-width="1.2">
    <path d="M32 9 V20 M32 44 V55 M9 32 H20 M44 32 H55"/>
    <path d="M15 15 L24 24 M40 40 L49 49 M49 15 L40 24 M24 40 L15 49"/>
  </g>
  <path stroke="currentColor" stroke-width="1.1" d="M38 28 A8 8 0 0 1 38 36"/>
</svg>
