<?xml version="1.0" encoding="UTF-8"?>
<svg xmlns="http://www.w3.org/2000/svg" width="64" height="64" viewBox="0 0 64 64" fill="none">

  <defs>
    <pattern id="hatch" patternUnits="userSpaceOnUse" width="4" height="4">
      <path d="M0 4 L4 0" stroke="currentColor" stroke-width="0.7" opacity="0.35"/>
    </pattern>
    <pattern id="hatch2" patternUnits="userSpaceOnUse" width="3" height="3">
      <path d="M0 3 L3 0" stroke="currentColor" stroke-width="0.6" opacity="0.25"/>
    </pattern>
  </defs>
  <circle cx="40" cy="32" r="20" fill="none" stroke="currentColor" stroke-width="2"/>
  <circle cx="40" cy="32" r="15" fill="url(#hatch)" stroke="currentColor" stroke-width="1.4"/>
  <circle cx="40" cy="32" r="11" fill="none" stroke="currentColor" stroke-width="1.2"/>
  <g fill="currentColor">
    <circle cx="40" cy="14" r="1.5"/><circle cx="40" cy="50" r="1.5"/>
    <circle cx="22" cy="32" r="1.5"/><circle cx="58" cy="32" r="1.5"/>
    <circle cx="27" cy="19" r="1.5"/><circle cx="53" cy="19" r="1.5"/>
    <circle cx="27" cy="45" r="1.5"/><circle cx="53" cy="45" r="1.5"/>
  </g>
  <path fill="url(#hatch2)" stroke="currentColor" stroke-width="1.4" d="M4 16 H14 V20 L16 24 V40 L14 44 H4 V48 H16 L20 42 V22 L16 16 H4 Z"/>
  <path stroke="currentColor" stroke-width="1.1" d="M12 32 H18"/>
</svg>
