<?xml version="1.0" encoding="UTF-8"?>
<svg xmlns="http://www.w3.org/2000/svg" width="64" height="64" viewBox="0 0 64 64" fill="none">

  <defs>
    <pattern id="hatch" patternUnits="userSpaceOnUse" width="4" height="4">
      <path d="M0 4 L4 0" stroke="currentColor" stroke-width="0.7" opacity="0.35"/>
    </pattern>
    <pattern id="hatch2" patternUnits="userSpaceOnUse" width="3" height="3">
      <path d="M0 3 L3 0" stroke="currentColor" stroke-width="0.6" opacity="0.25"/>
    </pattern>
  </defs>
  <path fill="url(#hatch)" stroke="currentColor" stroke-width="1.7" d="M6 30 C12 16 24 16 32 24 C40 14 52 16 58 28 C52 42 40 44 32 36 C24 44 12 42 6 30 Z"/>
  <path fill="none" stroke="currentColor" stroke-width="1.2" d="M18 28 C26 34 38 34 46 28"/>
  <path fill="url(#hatch2)" stroke="currentColor" stroke-width="1.3" d="M22 36 V50 H26 V38 M38 36 V50 H42 V38"/>
  <path stroke="currentColor" stroke-width="1.4" d="M20 50 H44"/>
  <path stroke="currentColor" stroke-width="1" opacity="0.45" d="M14 26 C22 22 42 22 50 26"/>
</svg>
