<?xml version="1.0" encoding="UTF-8"?>
<svg xmlns="http://www.w3.org/2000/svg" width="64" height="64" viewBox="0 0 64 64" fill="none">

  <defs>
    <pattern id="hatch" patternUnits="userSpaceOnUse" width="4" height="4">
      <path d="M0 4 L4 0" stroke="currentColor" stroke-width="0.7" opacity="0.35"/>
    </pattern>
    <pattern id="hatch2" patternUnits="userSpaceOnUse" width="3" height="3">
      <path d="M0 3 L3 0" stroke="currentColor" stroke-width="0.6" opacity="0.25"/>
    </pattern>
  </defs>
  <circle cx="32" cy="32" r="9" fill="url(#hatch)" stroke="currentColor" stroke-width="1.5"/>
  <circle cx="32" cy="32" r="3.5" fill="none" stroke="currentColor" stroke-width="1.2"/>
  <g stroke="currentColor" stroke-width="1.6" stroke-linecap="round">
    <path d="M32 6 V23 M32 41 V58 M6 32 H23 M41 32 H58"/>
    <path d="M12 12 L24 24 M40 40 L52 52 M52 12 L40 24 M24 40 L12 52"/>
    <path d="M20 8 L28 22 M44 42 L52 56" opacity="0.55"/>
  </g>
  <g fill="url(#hatch2)" stroke="currentColor" stroke-width="1.1">
    <circle cx="32" cy="6" r="2.5"/><circle cx="32" cy="58" r="2.5"/>
    <circle cx="6" cy="32" r="2.5"/><circle cx="58" cy="32" r="2.5"/>
    <circle cx="12" cy="12" r="2.5"/><circle cx="52" cy="52" r="2.5"/>
  </g>
</svg>
