<svg xmlns="http://www.w3.org/2000/svg" width="32" height="32" viewBox="0 0 32 32" fill="none" stroke="currentColor" stroke-width="1.3" stroke-linecap="round" stroke-linejoin="round">
  <title>Rear tire icon</title>
  <circle cx="16" cy="16" r="11" />
  <circle cx="16" cy="16" r="8" />
  <line x1="27" y1="17.3" x2="28.3" y2="17.3" />
  <line x1="27" y1="14.7" x2="28.3" y2="14.7" />
  <line x1="22.86" y1="24.7" x2="23.78" y2="25.62" />
  <line x1="24.7" y1="22.86" x2="25.62" y2="23.78" />
  <line x1="14.7" y1="27" x2="14.7" y2="28.3" />
  <line x1="17.3" y1="27" x2="17.3" y2="28.3" />
  <line x1="7.3" y1="22.86" x2="6.38" y2="23.78" />
  <line x1="9.14" y1="24.7" x2="8.22" y2="25.62" />
  <line x1="5" y1="14.7" x2="3.7" y2="14.7" />
  <line x1="5" y1="17.3" x2="3.7" y2="17.3" />
  <line x1="9.14" y1="7.3" x2="8.22" y2="6.38" />
  <line x1="7.3" y1="9.14" x2="6.38" y2="8.22" />
  <line x1="17.3" y1="5" x2="17.3" y2="3.7" />
  <line x1="14.7" y1="5" x2="14.7" y2="3.7" />
  <line x1="24.7" y1="9.14" x2="25.62" y2="8.22" />
  <line x1="22.86" y1="7.3" x2="23.78" y2="6.38" />
</svg>
