<svg xmlns="http://www.w3.org/2000/svg" width="64" height="64" viewBox="0 0 64 64" fill="none" stroke="currentColor" stroke-width="2" stroke-linecap="round" stroke-linejoin="round">
  <!-- Drop-bar curve with clear overlapping tape bands + finishing plug -->
  <path d="M8 18 C20 14 34 14 42 22 C50 30 50 42 42 50 C36 56 28 56 22 52" />
  <!-- tape wrap bands across the bar -->
  <path d="M12 16 C16 20 18 26 16 32" />
  <path d="M18 15 C22 20 24 28 22 36" />
  <path d="M24 15 C28 20 30 30 28 40" />
  <path d="M30 16 C34 22 36 32 34 42" />
  <path d="M36 18 C40 26 40 36 38 46" />
  <path d="M42 24 C46 32 44 42 40 50" />
  <path d="M44 34 C46 40 42 48 36 52" />
  <!-- bar end plug -->
  <circle cx="20" cy="52" r="4" />
  <circle cx="20" cy="52" r="1.5" fill="currentColor" stroke="none" />
  <!-- leftover tape roll hint -->
  <circle cx="54" cy="16" r="6" />
  <circle cx="54" cy="16" r="2" />
</svg>
