<svg xmlns="http://www.w3.org/2000/svg" width="64" height="64" viewBox="0 0 64 64" fill="none" stroke="currentColor" stroke-width="2" stroke-linecap="round" stroke-linejoin="round">
  <!-- Open-end wrench + hex nut (generic spare part) -->
  <path d="M14 10 C14 10 10 14 10 18 C10 22 14 26 18 26 C20 26 22 25 24 24 L42 42" />
  <path d="M18 10 C22 10 26 14 26 18" />
  <path d="M10 18 C10 14 14 10 18 10" />
  <path d="M38 46 L50 34" />
  <path d="M40 48 L48 40" />
  <path d="M42 50 L46 46" />
  <!-- hex nut -->
  <path d="M44 14 L52 18 V26 L44 30 L36 26 V18 Z" />
  <circle cx="44" cy="22" r="3" />
</svg>
