<svg xmlns="http://www.w3.org/2000/svg" width="64" height="64" viewBox="0 0 64 64" fill="none" stroke="currentColor" stroke-width="2" stroke-linecap="round" stroke-linejoin="round">
  <!-- Saddle top: nose, mid, wide rear + rails and clamp -->
  <path d="M8 30 C12 22 20 22 28 26 C36 20 48 20 56 28 C50 38 40 40 32 34 C24 40 14 38 8 30 Z" />
  <path d="M20 28 C24 30 28 30 32 28 C36 30 40 30 44 28" />
  <path d="M24 36 V48" />
  <path d="M40 36 V48" />
  <path d="M22 48 H42" />
  <path d="M28 48 V54" />
  <path d="M36 48 V54" />
  <path d="M26 54 H38" />
</svg>
