<svg xmlns="http://www.w3.org/2000/svg" width="64" height="64" viewBox="0 0 64 64" fill="none" stroke="currentColor" stroke-width="2" stroke-linecap="round" stroke-linejoin="round">
  <!-- Hub flange + crossed spokes with nipples at rim -->
  <circle cx="32" cy="32" r="8" />
  <circle cx="32" cy="32" r="3" />
  <path d="M32 8 V24" />
  <path d="M32 40 V56" />
  <path d="M8 32 H24" />
  <path d="M40 32 H56" />
  <path d="M14 14 L26 26" />
  <path d="M38 38 L50 50" />
  <path d="M50 14 L38 26" />
  <path d="M26 38 L14 50" />
  <path d="M20 10 L28 24" />
  <path d="M44 40 L52 54" />
  <circle cx="32" cy="8" r="2" />
  <circle cx="32" cy="56" r="2" />
  <circle cx="8" cy="32" r="2" />
  <circle cx="56" cy="32" r="2" />
  <circle cx="14" cy="14" r="2" />
  <circle cx="50" cy="50" r="2" />
</svg>
